<svg xmlns="http://www.w3.org/2000/svg" xmlns:xlink="http://www.w3.org/1999/xlink" width="128" height="128" viewBox="0 0 33.867 33.867"><defs><linearGradient id="a"><stop offset="0" stop-color="#0cc8ef"/><stop offset="1" stop-color="#047afa"/></linearGradient><linearGradient id="b" x1="25.602" x2="16.933" y1="16.933" y2="16.933" gradientUnits="userSpaceOnUse" xlink:href="#a"/><linearGradient id="c" x1="8.992" x2="13.709" y1="16.198" y2="16.198" gradientUnits="userSpaceOnUse" xlink:href="#a"/><linearGradient id="d" x1="16.933" x2="16.933" y1="1.058" y2="32.808" gradientUnits="userSpaceOnUse" xlink:href="#a"/></defs><path fill="url(#b)" d="M18.856 12.938v6.52h3.679c.88 0 1.4-.729 1.587-1.588l.728-3.344c.187-.86-.708-1.588-1.587-1.588z" paint-order="fill markers stroke"/><path fill="url(#c)" d="M10.58 12.938c-.88 0-1.588.708-1.588 1.588v3.344c0 .88.708 1.587 1.587 1.587h3.13v-6.519z" paint-order="fill markers stroke"/><path fill="url(#d)" d="M12.96 5.99v25.247c0 .88.708 1.588 1.588 1.588h3.344c.88 0 1.587-.708 1.587-1.588V10.782c0-2.377.536-3.205 2.85-3.205h.678c.88 0 1.587-.708 1.587-1.587V2.646c0-.88-.708-1.588-1.587-1.588h-5.115c-3.365 0-4.932 2.055-4.932 4.932z" paint-order="fill markers stroke"/><path d="M13.397 30.948v.263h.53v-.263zm1.322 0v.263h.53v-.263zm1.208 0v.263h.53v-.263zm1.324 0v.263h.53v-.263zm1.322 0v.263h.53v-.263z" style="line-height:normal;font-variant-ligatures:normal;font-variant-position:normal;font-variant-caps:normal;font-variant-numeric:normal;font-variant-alternates:normal;font-variant-east-asian:normal;font-feature-settings:normal;font-variation-settings:normal;text-indent:0;text-align:start;text-decoration-line:none;text-decoration-style:solid;text-decoration-color:#000;text-transform:none;text-orientation:mixed;white-space:normal;shape-padding:0;shape-margin:0;inline-size:0;isolation:auto;mix-blend-mode:normal;solid-color:#000;solid-opacity:1" fill="#024292" color="#000" font-family="sans-serif" font-weight="400" overflow="visible" paint-order="markers fill stroke"/></svg>