<svg xmlns="http://www.w3.org/2000/svg" xmlns:xlink="http://www.w3.org/1999/xlink" width="128" height="128" viewBox="0 0 33.867 33.867"><defs><linearGradient id="a"><stop offset="0" stop-color="#00ce4e"/><stop offset="1" stop-color="#a7e890"/></linearGradient><linearGradient id="c" x1="17.471" x2="17.611" y1="29.43" y2="1.058" gradientTransform="translate(-1.459 -.047) scale(1.04447)" gradientUnits="userSpaceOnUse" xlink:href="#a"/><linearGradient id="d" x1="17.775" x2="18.362" y1="10.861" y2="33.338" gradientTransform="translate(-1.052 -1.888) scale(1.06098)" gradientUnits="userSpaceOnUse" xlink:href="#b"/><linearGradient id="b"><stop offset="0" stop-color="#f5f8ff"/><stop offset="1" stop-color="#a0c9ff"/></linearGradient></defs><path fill="url(#c)" d="M16.936 1.058c-8.767 0-15.873 7.107-15.873 15.873 0 2.882.785 5.71 2.271 8.18l-.85 5.759c-.22 1.41.91 2.103 1.963 1.906l6.436-1.173c1.92.792 3.976 1.2 6.053 1.2 8.766 0 15.872-7.106 15.872-15.872S25.702 1.058 16.936 1.058Z" paint-order="fill markers stroke"/><path style="line-height:normal;font-variant-ligatures:normal;font-variant-position:normal;font-variant-caps:normal;font-variant-numeric:normal;font-variant-alternates:normal;font-variant-east-asian:normal;font-feature-settings:normal;font-variation-settings:normal;text-indent:0;text-align:start;text-decoration-line:none;text-decoration-style:solid;text-decoration-color:#000;text-transform:none;text-orientation:mixed;white-space:normal;shape-padding:0;shape-margin:0;inline-size:0;isolation:auto;mix-blend-mode:normal;solid-color:#000;solid-opacity:1" fill="url(#d)" d="M12.477 8.761c-1.007-.976-2.42.251-3.013.908-1.279 1.416-1.769 3.545-1.138 5.625.63 2.08 2.163 4.174 4.698 6.462 2.535 2.29 4.774 3.601 6.907 4.017 2.133.416 4.201-.289 5.48-1.705.593-.657 1.67-2.187.596-3.09a1.81 1.81 0 0 0-.244-.17l-3.56-1.134c-.596-.243-1.106.087-1.505.451l-1.77 1.616c-1-.508-2.204-1.331-3.572-2.567-1.369-1.236-2.31-2.35-2.918-3.292l1.428-1.926c.321-.434.598-.974.296-1.542l-1.49-3.427a1.816 1.816 0 0 0-.195-.226Z" color="#000" font-family="sans-serif" font-weight="400" overflow="visible" paint-order="fill markers stroke"/><path style="line-height:normal;font-variant-ligatures:normal;font-variant-position:normal;font-variant-caps:normal;font-variant-numeric:normal;font-variant-alternates:normal;font-variant-east-asian:normal;font-feature-settings:normal;font-variation-settings:normal;text-indent:0;text-align:start;text-decoration-line:none;text-decoration-style:solid;text-decoration-color:#000;text-transform:none;text-orientation:mixed;white-space:normal;shape-padding:0;shape-margin:0;inline-size:0;isolation:auto;mix-blend-mode:normal;solid-color:#000;solid-opacity:1" fill="#1e9a4a" d="m17.023 3.176-.003.265.525.014.01-.266zm-.804.017-.53.037.02.264.527-.037zm2.138.055-.03.264.52.064.038-.262zm-3.466.08-.524.088.047.262.518-.088zm4.785.123-.055.26.516.113.058-.258zm-6.096.139-.512.14.073.254.507-.138zm7.39.19-.08.251.5.166.087-.25zm-8.665.197-.498.187.095.248.493-.185zm9.92.257-.102.245.482.208.108-.24zm-11.157.252-.476.237.12.236.474-.234zm12.366.32-.13.233.46.258.132-.229zm-13.541.307-.454.282.141.222.447-.275Zm14.683.381-.148.22.431.3.155-.215Zm-15.799.36-.422.324.166.207.416-.32Zm16.873.435-.17.201.399.344.176-.2Zm-17.906.406-.389.364.182.191.385-.357Zm18.897.489-.188.185.365.379.192-.182zm-19.848.45-.352.401.202.17.347-.394Zm20.75.536-.207.164.33.416.207-.166Zm-21.604.49-.31.432.215.152.308-.426Zm22.4.58-.22.147.285.441.225-.142Zm-23.151.526-.268.457.228.132.268-.457Zm23.845.617-.234.12.24.47.236-.118zm-24.482.555-.223.482.24.11.164-.36.057-.12zm25.058.648-.244.102.196.488.246-.096zm-25.584.58-.171.504.251.082.17-.498zm26.043.674-.254.076.147.506.254-.07zm-26.441.6-.125.517.256.06.125-.511zm26.775.69-.26.056.1.517.26-.049zm-27.05.616-.075.527.262.034.074-.522zm27.26.705-.264.028.047.523.263-.022zm-27.41.623-.024.53.263.011.024-.53zm27.226.71-.006.527.264.005.005-.53zm-26.979.612-.265.012.029.531.264-.015zm26.928.698-.055.523.264.03.055-.53zM3.555 18.7l-.262.04.082.525.26-.045Zm26.648.69-.107.515.258.057.109-.52zm-26.412.601-.258.06.13.516.255-.066zm26.11.674-.157.502.254.08.156-.508zm-25.755.584-.248.088.182.5.246-.094zm25.333.654-.206.485.243.107.207-.49zm-24.85.565-.242.111.228.48.239-.115Zm24.307.629-.25.463.232.128.252-.468zm-23.715.537-.227.136.272.454.226-.135zm23.06.597-.29.44.218.146.295-.441zm-.76 1.067-.334.406.204.17.338-.41zm-.86.986-.372.375.188.188.375-.38zm-.952.899-.406.334.166.207.41-.338zm-1.033.802-.44.291.145.223.441-.295zm-1.112.698-.462.25.125.234.466-.254zm-1.168.587-.486.204.098.246.492-.205Zm-1.224.471-.502.158.078.254.508-.16zm-1.26.352-.516.107.051.26.52-.107zm-5.723.05-.052.258.523.1.047-.26zm4.434.178-.525.057.027.264.527-.057zm-3.143.03-.023.261.527.047.024-.264zm1.836.07-.527.006v.263l.533-.005z" color="#000" font-family="sans-serif" font-weight="400" overflow="visible" paint-order="fill markers stroke"/></svg>